<svg width="250" height="136" xmlns="http://www.w3.org/2000/svg"><g fill="#5C687D" fill-rule="evenodd"><path d="M1.031 2.07c.282-.047.461-.07.54-.07.53 0 1.406.031 2.624.094.64.015 1.078.023 1.313.023.344 0 1.07-.031 2.18-.094l3.984-.234a41.566 41.566 0 013.656-.14c2.453 0 4.406.347 5.86 1.042 1.453.696 2.574 1.786 3.363 3.27.789 1.484 1.183 2.96 1.183 4.43 0 2.453-.859 4.57-2.578 6.351-1.719 1.781-4.031 2.672-6.937 2.672-.813 0-1.492-.082-2.04-.246-.546-.164-1.171-.48-1.874-.95-.297-.202-.477-.413-.54-.632a.535.535 0 01.258-.234c.22 0 .446.046.68.14.531.188 1.203.281 2.016.281a7.13 7.13 0 003.504-.914 5.948 5.948 0 002.496-2.601 7.862 7.862 0 00.843-3.563c0-1.218-.296-2.402-.89-3.55-.594-1.149-1.375-2.067-2.344-2.754-.547-.391-1.387-.72-2.52-.985-1.132-.265-2.011-.398-2.636-.398-1.938 0-3.086.14-3.445.422l-.024.328.094 2.648-.024.469c-.03.422-.046 1.07-.046 1.945 0 3.188.046 5.172.14 5.953v1.313l.305 10.71c0 .157-.02.446-.059.868-.039.422-.058.79-.058 1.102 0 .75.062 1.32.187 1.71.375.11 1.469.368 3.281.774.844.203 1.305.32 1.383.352.125.046.235.148.328.304-.062.235-.144.387-.246.457-.101.07-.3.106-.597.106-.188 0-.625-.04-1.313-.117-1.344-.141-2.398-.211-3.164-.211l-4.125.164-2.46-.07c-.157 0-.61.015-1.36.046l-.024-.61 3.047-.585c.5-.14.805-.281.914-.422.157-.219.235-.648.235-1.289 0-.14.007-.445.023-.914.016-.328.024-.781.024-1.36 0-1.843-.079-5.773-.235-11.788a386.173 386.173 0 01-.094-8.579v-.398c0-1.125-.171-1.836-.515-2.133-.578-.516-2.024-.937-4.336-1.266a1.082 1.082 0 01-.117-.421c0-.125.046-.274.14-.446zm27.14 29.555c.157-.14.29-.227.4-.258.265-.078.718-.14 1.359-.187 1.515-.094 2.453-.235 2.812-.422.219-.313.328-.75.328-1.313l-.023-1.64.023-5.953-.047-2.813.024-5.883-.117-6.68c-.016-1.593-.117-2.492-.305-2.695-.281-.297-1.117-.468-2.508-.515a11.047 11.047 0 01-1.57-.141c-.203-.11-.305-.25-.305-.422 0-.125.04-.273.117-.445a.793.793 0 01.375-.117c.22 0 .485.007.797.023.922.078 1.875.117 2.86.117l1.734-.047 4.125.094c2.063 0 3.672-.023 4.828-.07a70.885 70.885 0 012.344-.07c.36 0 1.25.03 2.672.093l3.328-.023.398.07 1.946-.07.234.117c.078.125.133.258.164.398 0 .22-.035.555-.105 1.008-.07.453-.106.735-.106.844 0 1.625.055 3 .164 4.125-.015.094-.062.156-.14.188-.172 0-.329-.024-.47-.07-.171-.298-.402-.821-.69-1.571-.29-.75-.723-1.617-1.301-2.602-.391-.656-.696-1.047-.914-1.172-.22-.125-.672-.187-1.36-.187-.14 0-.851-.016-2.133-.047-.343-.016-.68-.023-1.007-.023l-6.68.14h-.586c-.86 0-1.375.11-1.547.328-.266.375-.398 1.477-.398 3.305 0 .188.039 2.063.117 5.625v3.258c.172.047.36.07.562.07h.399c.265 0 .656.008 1.172.024.812.03 1.359.047 1.64.047.188 0 .352-.008.492-.024 1.688-.062 3.86-.094 6.516-.094.828-.14 1.313-.304 1.453-.492.235-.281.41-1.015.528-2.203.117-1.188.378-1.86.785-2.016.203 0 .39.04.562.118.031.125.047.242.047.351 0 .11-.016.29-.047.54-.078.577-.117 2.39-.117 5.437 0 .812.043 1.718.129 2.718.086 1 .129 1.54.129 1.618 0 .14-.024.328-.07.562a.73.73 0 01-.305.094h-.164c-.25-.438-.492-1.117-.727-2.04-.406-1.577-.832-2.566-1.277-2.964-.445-.398-1.168-.598-2.168-.598-.219 0-.617.012-1.195.035-.579.024-1.438.036-2.579.036H41.25c-2.172 0-3.594.046-4.266.14l-.023.774.023 4.312-.023 2.719.023 2.648c.016 1.594.118 2.516.305 2.766.266.344.844.516 1.734.516l1.43-.024c.125 0 .613.012 1.465.035.852.024 1.902.035 3.152.035 3.016 0 5.024-.128 6.024-.386s1.824-.715 2.472-1.371c.649-.657 1.465-2.07 2.45-4.242.297-.641.593-.961.89-.961.14 0 .297.062.469.187-.453 1.547-.71 2.563-.773 3.047a26.19 26.19 0 00-.305 3.352c0 .515-.125.945-.375 1.289h-.516l-6.586.07-2.953-.024-7.031.094h-2.86c-.359 0-.695.008-1.007.024-2.813.125-4.883.187-6.211.187-.235 0-.395-.039-.48-.117-.087-.078-.13-.195-.13-.352l.024-.234zm30.892-.094c.578-.25 1.25-.414 2.015-.492 1.11-.125 1.938-.39 2.484-.797.422-.86.633-3.047.633-6.562v-3.703l.047-2.227-.047-1.64.047-3.024-.07-7.617c0-.86-.125-1.422-.375-1.688-.36-.39-1.313-.75-2.86-1.078-.64-.14-1.03-.27-1.171-.387-.141-.117-.227-.34-.258-.668.36-.078.61-.117.75-.117h1.664l.867-.023c.578 0 1.219.062 1.922.187 1.437.094 2.914.14 4.43.14.437 0 1.062-.022 1.875-.07 2.156-.124 3.703-.187 4.64-.187 1.89 0 3.676.188 5.356.563 1.68.375 3.41 1.07 5.191 2.086 1.11.64 2.246 1.652 3.41 3.035a15.085 15.085 0 012.649 4.523c.601 1.633.902 3.473.902 5.52 0 1.828-.332 3.64-.996 5.437-.664 1.797-1.59 3.356-2.777 4.676-1.188 1.32-2.391 2.312-3.61 2.977-1.219.664-3.078 1.238-5.578 1.722-1.031.188-2.883.281-5.555.281-1.765 0-3.203-.054-4.312-.164a9.957 9.957 0 00-1.406-.093c-.078 0-.164.007-.258.023l-9.563.164-.047-.187a.688.688 0 01-.046-.258l.047-.352zm11.93-.914c1.187.406 2.39.61 3.609.61 1.578 0 3.125-.247 4.64-.739 1.516-.492 2.856-1.187 4.02-2.086 1.164-.898 2.12-1.914 2.87-3.047.75-1.132 1.282-2.152 1.595-3.058.437-1.328.656-3.055.656-5.18 0-2.031-.43-4.094-1.29-6.187-.593-1.453-1.636-2.844-3.128-4.172C82.473 5.43 80.71 4.457 78.68 3.84c-2.032-.617-4.227-.926-6.586-.926-1.625 0-2.828.18-3.61.54a3.06 3.06 0 00-.28.327c-.095.39-.141.75-.141 1.078 0 .204.007.446.023.727.047 1.812.07 3.266.07 4.36l-.023 5.32c0 7.812.144 12.16.433 13.043.29.882 1.098 1.652 2.426 2.308zm25.523.633c.343-.14.695-.227 1.054-.258 2.39-.156 3.758-.441 4.102-.855.344-.414.516-2.418.516-6.012l-.024-2.46v-2.58l-.094-2.835.047-1.664-.023-1.828v-2.156l-.047-.961.047-1.22c.015-.28.023-.608.023-.983 0-.985-.047-2.024-.14-3.118a3.166 3.166 0 00-.258-.633c-.578-.296-1.512-.496-2.801-.597-1.29-.102-2.02-.215-2.191-.34-.125-.094-.196-.336-.211-.727h1.968l6.211.141c1.594 0 3.719-.047 6.375-.14 0 .25-.015.484-.047.703-.312.078-.835.164-1.57.257-1.484.172-2.39.336-2.719.493a.8.8 0 00-.445.398c-.156.281-.25.805-.281 1.57l-.117 3.024.093 10.43v4.124a133.22 133.22 0 00-.046 2.649c0 1.75.042 2.867.128 3.351.086.485.235.832.446 1.043.21.211.558.38 1.043.504.718.172 1.28.266 1.687.282.875.03 1.43.156 1.664.375.047.203.07.375.07.515v.188c-1.421.047-2.468.07-3.14.07-.39 0-1.086-.023-2.086-.07l-3.234.047-5.508-.024h-.445l-.047-.703zm15.726 0c.219-.125.414-.188.586-.188h.54c.109 0 .296-.007.562-.023 1.203-.11 1.914-.219 2.132-.328.547-.297 1.016-.813 1.407-1.547.812-1.594 1.726-3.851 2.742-6.773.484-1.391.789-2.235.914-2.532a53.19 53.19 0 001.125-2.953l2.203-6.164c.344-.969 1.172-3.187 2.484-6.656.329-.875.727-2.047 1.196-3.516l.68-.047.82.024a32.383 32.383 0 011.781 4.289c.281.812.742 2.023 1.383 3.633l3.562 9.633 1.899 5.226c1 2.969 1.656 4.793 1.969 5.473.312.68.601 1.129.867 1.347.078.063.37.157.879.282.507.125.863.218 1.066.28.719.204 1.219.376 1.5.517.063.171.094.304.094.398 0 .078-.024.195-.07.352-.5.015-.852.023-1.055.023-.797 0-2.203-.023-4.219-.07l-2.344-.07-2.836.046c-.187 0-.379-.011-.574-.035a4.318 4.318 0 00-.504-.035h-.515a1.172 1.172 0 01-.47-.14c0-.22.04-.43.118-.634.188-.093.36-.148.516-.164l2.46-.164c.641-.03 1.126-.117 1.454-.257.094-.282.14-.493.14-.633 0-.282-.203-1.008-.609-2.18a43.481 43.481 0 01-.738-2.227c-.211-.703-1.043-3.015-2.496-6.937-.641-.11-1.203-.164-1.688-.164l-5.016.047-1.476-.024c-.531 0-1.117.04-1.758.118-.203.468-.336.804-.398 1.007l-2.063 6.446c-.875 2.453-1.312 3.804-1.312 4.054 0 .141.07.375.21.703.329.094.766.18 1.313.258l3.188.282c.172.14.257.265.257.375 0 .078-.023.195-.07.351a78.37 78.37 0 01-1.617.024c-1.25 0-2.703-.04-4.36-.118a45.992 45.992 0 00-1.64-.047c-.328 0-.898.016-1.711.047-.531.032-.914.047-1.148.047-.375 0-.86-.023-1.454-.07v-.14c0-.11.032-.258.094-.446zm11.18-14.063c1.672.094 3.578.141 5.719.141 1.218 0 2.289-.039 3.21-.117-.156-.61-.335-1.18-.538-1.711a879.11 879.11 0 00-1.688-4.5l-2.133-5.414-.234-.422c-.094.188-.438.992-1.031 2.414-1 2.438-1.72 4.336-2.157 5.695-.203.61-.414 1.215-.632 1.817-.22.601-.356 1.023-.41 1.265a4.093 4.093 0 01-.247.739l.14.093zm20.953-11.671l.96-3.54c.063-.468.15-.769.259-.902.11-.133.234-.199.375-.199.281 0 .601.336.96 1.008.266.484.485.793.657.926.172.132.422.222.75.27l.234-.024 1.008.093 5.531.07 6.54-.023h1.921l3.633-.07c.156 0 .352.016.586.047 1.063.094 1.719.14 1.969.14a.72.72 0 00.562-.234c.047-.062.305-.594.774-1.594.203-.453.453-.68.75-.68.125 0 .281.032.469.094.078.313.117.594.117.844l-.024.938.024 1.992c0 .484-.04 2.047-.118 4.687 0 .172-.03.328-.093.47-.172.109-.32.163-.446.163-.125 0-.234-.058-.328-.176-.093-.117-.21-.48-.351-1.09-.313-1.406-.703-2.413-1.172-3.023-.313-.39-.762-.672-1.348-.844-.586-.172-1.988-.257-4.207-.257-1.781 0-3.101.03-3.96.093a34.5 34.5 0 00-.048 1.711l.188 14.555c0 .578-.031 1.672-.094 3.281l.024 3.117-.024 1.735c0 .547.094.937.281 1.172.188.234.696.46 1.524.68 1.437.359 2.398.577 2.883.656.297.03.539.093.726.187v.703l-3.328-.094c-1.828-.015-3.203-.054-4.125-.117l-3.422.164-2.508.14c-.703 0-1.132-.015-1.289-.046l-.328-.14c.031-.36.102-.59.211-.692.11-.102.399-.184.867-.246a19.6 19.6 0 002.32-.504c.891-.242 1.477-.488 1.758-.738.157-.14.266-.375.329-.703.14-.688.21-2.04.21-4.055v-3.984l-.093-8.696-.094-1.875-.023-6.258c-.985-.109-2.243-.164-3.774-.164-2.25 0-3.617.141-4.101.422-.766.438-1.907 1.719-3.422 3.844-.5.797-.938 1.195-1.313 1.195l-.21-.047a.475.475 0 01-.095-.257c0-.188.125-.75.375-1.688.313-1.203.5-2.015.563-2.437zm29.977 25.78c2.28-.265 3.57-.452 3.867-.562.203-.078.39-.312.562-.703v-.258c0-.39.063-1.804.188-4.242.031-.687.047-1.36.047-2.015l-.07-2.79.046-3.163-.023-5.883.023-4.22c.016-1.78-.12-2.866-.41-3.257-.289-.39-1.035-.668-2.238-.832-1.203-.164-1.867-.285-1.992-.363-.125-.078-.188-.203-.188-.375 0-.11.024-.25.07-.422.157-.14.516-.219 1.078-.234.079 0 .293-.02.645-.059a9.04 9.04 0 01.996-.059h1.922l6.164-.07c3.484 0 5.926.258 7.324.774a6.749 6.749 0 013.34 2.613c.828 1.226 1.242 2.597 1.242 4.113 0 2.875-1.507 5.07-4.523 6.586-.516.266-.922.5-1.219.703.531 1.125 1.274 2.477 2.227 4.055l2.976 5.11c1.188 1.874 2.008 3.05 2.461 3.527a5.616 5.616 0 001.653 1.183c.648.313 1.738.61 3.27.89.015.157.023.282.023.376 0 .094-.008.21-.024.351-2.14.032-4.648.047-7.523.047-.204 0-.485-.015-.844-.047a158.301 158.301 0 00-3.914-7.008l-3.469-6.328c-.469-.656-.855-1.066-1.16-1.23-.305-.164-.707-.246-1.207-.246l-1.992.023-.657-.023c-.046.5-.07 1.523-.07 3.07v8.016c-.016.297.047.71.188 1.242.125.297.34.535.644.715.305.18 1.184.449 2.637.808l.96.235c.126.156.188.367.188.633-.422.078-.718.117-.89.117-1.407 0-2.399-.016-2.977-.047-.297-.016-.539-.024-.726-.024l-3.188.047-3.117-.023c-.14 0-.852.023-2.133.07l-.469-.094-.047-.234c0-.14.11-.305.329-.492zm8.718-15.327c.422.015.735.023.938.023 1.125 0 2.422-.133 3.89-.398 1.032-.203 1.868-.535 2.508-.996.64-.461 1.176-1.145 1.606-2.051.43-.906.644-1.844.644-2.813 0-1.062-.336-2.187-1.008-3.375-.515-.906-1.386-1.664-2.613-2.273-1.226-.61-2.7-.914-4.418-.914-.422 0-.969.023-1.64.07a26.283 26.283 0 00-.094 1.875L183 9.5l-.023 1.805c0 1.218.03 2.773.093 4.664zm20.977 15.281c.344-.14.695-.227 1.055-.258 2.39-.156 3.757-.441 4.101-.855.344-.414.516-2.418.516-6.012l-.024-2.46v-2.58l-.093-2.835.046-1.664-.023-1.828v-2.156l-.047-.961.047-1.22c.016-.28.023-.608.023-.983 0-.985-.046-2.024-.14-3.118a3.166 3.166 0 00-.258-.633c-.578-.296-1.512-.496-2.8-.597-1.29-.102-2.02-.215-2.192-.34-.125-.094-.196-.336-.211-.727h1.969l6.21.141c1.594 0 3.72-.047 6.376-.14 0 .25-.016.484-.047.703-.313.078-.836.164-1.57.257-1.485.172-2.391.336-2.72.493a.8.8 0 00-.445.398c-.156.281-.25.805-.28 1.57l-.118 3.024.094 10.43v4.124a133.22 133.22 0 00-.047 2.649c0 1.75.043 2.867.129 3.351.086.485.234.832.445 1.043.21.211.559.38 1.043.504.719.172 1.281.266 1.687.282.875.03 1.43.156 1.665.375.046.203.07.375.07.515v.188c-1.422.047-2.469.07-3.14.07-.391 0-1.087-.023-2.087-.07l-3.234.047-5.508-.024h-.445l-.047-.703zm43.758-27.938a24.017 24.017 0 01.257 4.711 2.59 2.59 0 01-.492.07c-.093 0-.226-.015-.398-.046-.656-1.828-1.727-3.234-3.211-4.219-1.484-.984-3.32-1.476-5.508-1.476-1.156 0-2.133.132-2.93.398-1.406.484-2.64 1.152-3.703 2.004a11.996 11.996 0 00-2.695 3.047c-.734 1.18-1.316 2.61-1.746 4.289a20.676 20.676 0 00-.645 5.144c0 3.344.508 6.106 1.524 8.286 1.015 2.18 2.406 3.734 4.172 4.664 1.765.93 3.547 1.394 5.343 1.394l1.102-.023c1.25-.157 2.102-.305 2.555-.446 1.14-.328 2.082-.714 2.824-1.16.742-.445 1.469-1.074 2.18-1.887a11.835 11.835 0 001.816-2.835l.281-.094c.078 0 .196.047.352.14a9.566 9.566 0 01-.047.727c-.656 2.64-1.133 4.445-1.43 5.414-.25.063-.562.156-.937.281-1.828.625-4.274.938-7.336.938-2.469 0-4.317-.168-5.543-.504-1.227-.336-2.563-.86-4.008-1.57a13.037 13.037 0 01-3.809-2.825c-1.093-1.172-1.976-2.652-2.648-4.441-.672-1.79-1.008-3.738-1.008-5.848 0-2 .266-3.746.797-5.238.531-1.492 1.352-3.004 2.461-4.535a15.57 15.57 0 013.926-3.82 14.835 14.835 0 015.027-2.157c1.297-.28 3.133-.422 5.508-.422 1.734 0 3.367.23 4.898.692 1.532.46 2.555.91 3.07 1.347zM205.854 124.055c.089-.05.174-.099.255-.149 1.688-1.031 2.907-2.133 3.657-3.304.75-1.172 1.125-2.477 1.125-3.915 0-2.718-.938-4.874-2.813-6.468-2.437-2.094-6.047-3.985-10.828-5.672a205.61 205.61 0 01-5.531-2.672c-1.625-1.281-2.438-2.437-2.438-3.469 0-.625.25-1.125.75-1.5 1.25-1 2.985-1.718 5.203-2.156 4.094-.844 7.696-3.266 10.805-7.266 3.11-4 4.664-8.265 4.664-12.796 0-2.313-.437-4.422-1.312-6.329.468.125 1 .266 1.593.422 1.47.407 2.563.61 3.282.61.218 0 .578-.032 1.078-.094.219-.344.328-.672.328-.984 0-.407-.047-1.079-.14-2.016a9.947 9.947 0 00-1.126-.094c-.281 0-.789.047-1.523.14a15.3 15.3 0 01-1.899.141c-1.343 0-2.53-.25-3.562-.75-1.594-.78-3.188-1.171-4.781-1.171-1.344 0-2.985.343-4.922 1.03-1.25.438-2.313 1-3.188 1.688-1.281 1-2.539 2.399-3.773 4.196-1.235 1.796-2.274 3.992-3.117 6.585a16.809 16.809 0 00-.891 5.438c0 1.156.156 2.312.469 3.469.312 1.156.656 2.078 1.031 2.765l1.5 1.641c1.156 1.219 1.906 2.047 2.25 2.484-2.875 1.875-4.945 3.078-6.21 3.61-1.267.531-2.063.984-2.392 1.36a1.872 1.872 0 00-.492 1.265c0 .375.125.718.375 1.031.688.844 2.219 2.234 4.594 4.172-8.656 3.781-13.906 6.406-15.75 7.875-1.281 1.031-1.922 2.234-1.922 3.61 0 .937.328 1.859.984 2.765 1.157 1.562 2.72 2.86 4.688 3.89 1.969 1.032 4.687 1.907 8.156 2.626 1.907.406 4.985.609 9.235.609 1.84 0 3.743-.178 5.708-.535 1.082.138 2.335.207 3.76.207 2.782 0 6.055-.82 9.82-2.461 3.766-1.64 7.4-4.242 10.9-7.805 5.155-5.25 9.702-11.297 13.64-18.14 2.594-4.5 5.11-10.875 7.547-19.126 1.78-5.968 2.672-9.703 2.672-11.203 0-1-.196-1.718-.586-2.156-.391-.437-.993-.656-1.805-.656-.813 0-1.36.219-1.64.656-.595.781-.891 1.938-.891 3.469 0 .156.03.61.093 1.36.032.562.047 1.234.047 2.015 0 2.156-.156 4.14-.469 5.953a66.672 66.672 0 01-2.18 8.86c-.921 2.874-1.944 5.343-3.07 7.406-1.437 2.75-3.156 5.625-5.156 8.625-.187.312-.36.546-.515.703.062-.594.359-2.156.89-4.688.407-1.781.79-4.547 1.149-8.297.36-3.75.539-6.89.539-9.421 0-5.594-.75-10.016-2.25-13.266-1.094-2.344-2.547-3.516-4.36-3.516-.28 0-.671.031-1.172.094-1 .469-1.718.937-2.156 1.406-.719.782-1.562 2.172-2.531 4.172-.469 1-1.25 3.547-2.344 7.64.469.345.86.516 1.172.516l.375-.093c1.063-3.75 2.14-6.297 3.234-7.641.532-.625 1.157-.938 1.875-.938.438 0 .797.125 1.079.376.53.468.96 1.25 1.289 2.343.328 1.094.57 3.125.726 6.094.157 4.344.235 7.328.235 8.953 0 2.781-.243 6.102-.727 9.961-.484 3.86-1.234 7.055-2.25 9.586-1.016 2.531-2.226 4.61-3.633 6.234-2.625 3-4.937 5.172-6.937 6.516-1.063 1-2.711 1.96-4.946 2.883-1.678.692-3.193 1.124-4.544 1.297zm-10.99.73c-.573.04-1.153.059-1.739.059-1.375 0-3.047-.047-5.016-.14-1.343-.188-2.296-.36-2.859-.516a15.002 15.002 0 00-1.406-.422c-2.907-.72-5.235-1.875-6.985-3.47-.937-.968-1.406-2.124-1.406-3.468 0-.781.188-1.547.563-2.297.093-.187.601-.703 1.523-1.547.922-.843 2.273-1.75 4.055-2.718 3.344-1.813 6.062-3.063 8.156-3.75 1.313.562 3 1.25 5.063 2.062 4.593 1.75 7.64 3.25 9.14 4.5 2 1.719 3 3.438 3 5.156 0 1-.265 1.813-.797 2.438-.757.94-2.346 1.85-4.764 2.73a8.222 8.222 0 01-1.001-.949c-1.063-1.094-1.828-1.765-2.297-2.016-.969-.468-1.89-.703-2.766-.703-.625 0-1.172.227-1.64.68-.47.453-.704.992-.704 1.617 0 .925.627 1.843 1.88 2.754zM2.11 44.172l.704-2.484c1.156.218 1.984.328 2.484.328l8.39.234c2.032 0 4.97-.172 8.813-.516.563-.062 1.781-.125 3.656-.187.094.594.14 1.031.14 1.312 0 .157-.015.407-.046.75-.469.094-1.922.32-4.36.68-2.437.36-3.812.648-4.124.867-.25.157-.422.344-.516.563-.719 1.531-1.484 4.797-2.297 9.797L11.72 74.922c-.907 6-1.36 10.187-1.36 12.562 0 1.157.188 2.72.563 4.688.25 1.375.719 2.578 1.406 3.61a13.757 13.757 0 003.422 3.562c3.563 1.812 6.828 2.719 9.797 2.719 2.031 0 3.625-.11 4.781-.329 4.25-.812 7.43-1.843 9.54-3.093 2.109-1.25 3.82-2.844 5.132-4.782 1.313-1.937 2.531-4.984 3.656-9.14.813-2.969 1.969-9.563 3.469-19.781 1.031-7.063 1.547-12.266 1.547-15.61 0-1.375-.516-2.578-1.547-3.61-1.031-1.03-2.64-1.687-4.828-1.968a51.912 51.912 0 01-2.86-.375L44.392 43c0-.375.078-.906.234-1.594 4.219.344 8.562.516 13.031.516 1.563 0 3.453-.094 5.672-.281l.89-.047h2.016l.047 1.828c-.437.094-1.375.281-2.812.562-1.938.375-3.29.797-4.055 1.266-.766.469-1.414 1.187-1.945 2.156-.844 1.5-1.422 3.61-1.735 6.328L53.72 69.578c-.625 4.688-1.563 9.64-2.813 14.86-.875 3.718-2.047 6.937-3.515 9.656-.938 1.719-2.47 3.5-4.594 5.344-1.594 1.375-3.836 2.554-6.727 3.539-2.89.984-6.32 1.476-10.289 1.476-.562 0-1.64-.078-3.234-.234-2.969-.063-5.79-.61-8.461-1.64-2.672-1.032-4.695-2.188-6.07-3.47C6.64 97.83 5.5 96.125 4.594 94c-.907-2.125-1.36-4.625-1.36-7.5 0-3.375.352-6.68 1.055-9.914S5.937 68.156 7.125 61l2.203-12.469c.094-.656.14-1.203.14-1.64 0-.532-.21-.953-.632-1.266-.422-.313-1.711-.625-3.867-.938-1.407-.218-2.36-.39-2.86-.515zm73.266 24.375c-1.031.75-2 1.625-2.906 2.625-.25.281-1.672 2.156-4.266 5.625l-1.922.094c.782-1.688 2.235-3.766 4.36-6.235 2.125-2.469 3.968-4.156 5.53-5.062 1-.594 2.126-.938 3.376-1.031.781.218 1.32.515 1.617.89.297.375.445.828.445 1.36 0 .53-.062 1.062-.187 1.593-.344 1.719-1.031 4.172-2.063 7.36-1.03 3.187-1.953 5.703-2.765 7.546l-2.438 5.766-.187.844c.437-.75 1.328-2.422 2.672-5.016C81.734 75.25 85.406 69.281 87.656 67c1.657-1.625 3.594-2.438 5.813-2.438 1.25 0 2.422.5 3.515 1.5.813.782 1.22 1.813 1.22 3.094 0 1.438-.454 2.672-1.36 3.703-.625.72-1.516 1.079-2.672 1.079-.969 0-1.649-.227-2.04-.68-.39-.453-.632-1.586-.726-3.399-.406-.812-.86-1.218-1.36-1.218-.5 0-1.03.265-1.593.796-1.5 1.344-4.328 5.649-8.484 12.915-4.157 7.265-6.758 12.312-7.805 15.14-1.047 2.828-1.898 4.774-2.555 5.836-.343.531-.984.797-1.921.797-.844 0-1.446-.148-1.805-.445-.36-.297-.54-.68-.54-1.149 0-.625.157-1.343.47-2.156 1.343-3.281 3.5-9.328 6.468-18.14l3.281-10.032c.22-.906.375-1.484.47-1.734l.28-.703c0-.313-.312-.72-.937-1.22zm50.11 7.828c0 7.25-2.196 13.687-6.587 19.313-4.39 5.625-8.945 8.437-13.664 8.437-2.53 0-4.578-.945-6.14-2.836-1.563-1.89-2.344-4.851-2.344-8.883 0-2.719.61-5.851 1.828-9.398 1.219-3.547 2.797-6.492 4.734-8.836a54.64 54.64 0 001.5-1.922 23.297 23.297 0 015.907-5.438c2.281-1.468 4.61-2.203 6.984-2.203 2.188 0 4.031.914 5.531 2.743 1.5 1.828 2.25 4.835 2.25 9.023zm-24.376 21.328c0 1.438.336 2.5 1.008 3.188.672.687 1.758 1.03 3.258 1.03 1.469 0 2.953-.718 4.453-2.155 2.688-2.625 5.375-7.141 8.063-13.547 2.687-6.407 4.03-11.453 4.03-15.14 0-1.313-.327-2.352-.984-3.118-.656-.766-1.406-1.148-2.25-1.148-1.843 0-3.765 1.078-5.765 3.234-3.406 3.625-6.344 8.625-8.813 15-2 5.187-3 9.406-3 12.656zm45.563-55.36l.14-1.312c3.813-.281 6.704-.422 8.672-.422h2.063v.657l-1.453 4.547c-.063.125-1.203 3.015-3.422 8.671l-6.328 16.5c-1.125 3.094-3 7.875-5.625 14.344l-1.547 4.078c-1.094 2.969-1.969 4.969-2.625 6-1.031 1.688-1.547 2.938-1.547 3.75l.188.75c1.03-.094 2.359-.797 3.984-2.11 2.375-1.843 4.531-4.202 6.469-7.077.625-.125 1.109-.188 1.453-.188l.562.047c-1.219 2.281-2.531 4.14-3.937 5.578-2.219 2.25-3.75 3.672-4.594 4.266-1.875 1.375-3.672 2.422-5.39 3.14-1.094.47-2.172.704-3.235.704-.563 0-.984-.141-1.266-.422-.28-.282-.422-.64-.422-1.078 0-1.47 2.5-7.922 7.5-19.36 1.532-3.469 3.125-7.437 4.782-11.906 2.906-7.813 5.14-13.375 6.703-16.688 1.562-3.312 2.703-6.296 3.422-8.953.062-.28.094-.515.094-.703 0-.469-.22-.906-.657-1.312-.562-.5-1.89-1-3.984-1.5zm33.797 34.032c0 7.25-2.196 13.687-6.586 19.313-4.39 5.625-8.945 8.437-13.664 8.437-2.532 0-4.578-.945-6.14-2.836-1.563-1.89-2.345-4.851-2.345-8.883 0-2.719.61-5.851 1.828-9.398 1.22-3.547 2.797-6.492 4.735-8.836a54.64 54.64 0 001.5-1.922 23.297 23.297 0 015.906-5.438c2.281-1.468 4.61-2.203 6.984-2.203 2.188 0 4.032.914 5.532 2.743 1.5 1.828 2.25 4.835 2.25 9.023zm-24.375 21.328c0 1.438.336 2.5 1.008 3.188.671.687 1.757 1.03 3.257 1.03 1.47 0 2.953-.718 4.453-2.155 2.688-2.625 5.375-7.141 8.063-13.547 2.688-6.407 4.031-11.453 4.031-15.14 0-1.313-.328-2.352-.984-3.118-.656-.766-1.406-1.148-2.25-1.148-1.844 0-3.766 1.078-5.766 3.234-3.406 3.625-6.343 8.625-8.812 15-2 5.187-3 9.406-3 12.656zm38.719-5.062c1.625-.25 3-.844 4.125-1.782.53-.406 1.421-1.664 2.671-3.773 1.25-2.11 2.172-4.008 2.766-5.695 1.375-3.907 2.063-7.11 2.063-9.61 0-1.687-.415-2.992-1.243-3.914-.828-.922-1.882-1.383-3.164-1.383-1.375 0-2.703.586-3.984 1.758-1.281 1.172-2.82 4.04-4.617 8.602-1.797 4.562-2.696 8.11-2.696 10.64 0 1.313.391 2.453 1.172 3.422.782.969 1.75 1.547 2.906 1.735zm11.04 31.414c-1.139.63-2.89 1.213-5.251 1.75-.548.124-1.09.235-1.628.332-1.766-.224-3.075-.632-3.927-1.223a10.075 10.075 0 01-.182-.13 23.482 23.482 0 006.527-1.382c.254.198.49.342.71.434.484.203 1.304.305 2.46.305.413 0 .843-.029 1.292-.086zM.448 113.43v-.514c.188-.044.338-.072.448-.083l1.561-.083c1.295-.11 2.745-.2 4.35-.266a98.358 98.358 0 013.038-.033c1.881 0 3.26.139 4.134.415 1.272.41 2.221 1.027 2.847 1.851.625.825.938 1.74.938 2.748 0 1.638-1.168 3.016-3.503 4.134l-.083.132c1.195.321 2.175.77 2.938 1.345a5.86 5.86 0 011.76 2.109c.299.608.448 1.405.448 2.39 0 1.65-.75 3.119-2.25 4.408-1.499 1.29-3.566 1.934-6.2 1.934H8.4L5.894 134c-2.214.022-3.509.033-3.885.033-.388 0-.77-.016-1.146-.05v-.182c0-.133.028-.227.083-.282.067-.067.194-.122.382-.166 1.384-.288 2.167-.485 2.35-.59a.811.811 0 00.373-.506c.133-.443.199-1.583.199-3.42 0-.166-.006-.376-.017-.63a81.838 81.838 0 01-.033-1.28v-1.726c0-2.922-.033-5.473-.1-7.653l-.016-3.337-.017-.415c-.94-.133-1.77-.216-2.49-.25a5.806 5.806 0 01-1.129-.115zm6.591 8.401c.553.11 1.134.166 1.743.166 2.39 0 4.012-.526 4.864-1.577.853-1.052 1.279-2.097 1.279-3.138 0-.465-.075-.938-.224-1.42a3.19 3.19 0 00-.797-1.302 3.518 3.518 0 00-1.42-.864 9.286 9.286 0 00-2.955-.481c-.94 0-1.815.105-2.623.315-.01.233-.016.404-.016.515 0 .11.01.426.033.946.01.332.016.664.016.996l-.05 2.01.017 1.194.116 2.341.017.3zm3.901 11.29c1.096-.078 2.015-.31 2.756-.698.343-.177.75-.495 1.22-.955.47-.459.836-1.01 1.096-1.652.26-.642.39-1.261.39-1.859 0-.454-.091-1.013-.274-1.677a4.424 4.424 0 00-.93-1.751c-.436-.504-1.087-.919-1.95-1.245-.863-.327-1.815-.49-2.855-.49-2.015 0-3.144.039-3.387.116-.011.255-.017.443-.017.565l.017.614-.017 1.245v1.411c.033 2.601.094 4.14.183 4.615.088.476.39.886.905 1.229.514.343 1.469.52 2.863.531zm11.522-9.73c0-1.128.135-2.133.407-3.013.27-.88.727-1.834 1.37-2.863a9.58 9.58 0 012.323-2.582c.908-.692 2.164-1.303 3.77-1.834 1.128-.366 2.556-.548 4.282-.548 1.162 0 2.3.155 3.412.465 1.112.31 2.122.741 3.03 1.295.907.553 1.815 1.405 2.722 2.556a8.807 8.807 0 011.428 2.573c.42 1.207.63 2.452.63 3.736 0 1.46-.14 2.673-.422 3.636-.283.962-.756 1.914-1.42 2.855-.52.73-1.411 1.572-2.673 2.523-.84.642-1.887 1.16-3.137 1.553-1.251.393-2.601.589-4.051.589-1.472 0-2.784-.172-3.935-.515-1.15-.343-2.11-.76-2.88-1.253-.77-.493-1.56-1.22-2.374-2.183a10.38 10.38 0 01-1.851-3.188c-.42-1.162-.631-2.429-.631-3.801zm11.521 10.327c.93 0 1.896-.13 2.897-.39a7.25 7.25 0 002.665-1.295c.775-.603 1.38-1.29 1.818-2.059.437-.77.788-1.757 1.054-2.963.266-1.207.398-2.413.398-3.62 0-1.505-.22-2.993-.664-4.465a8.067 8.067 0 00-4.482-5.039 8.611 8.611 0 00-3.503-.722 9.005 9.005 0 00-2.955.498c-.963.332-1.754.755-2.374 1.27-.62.515-1.195 1.245-1.727 2.192-.53.946-.935 1.989-1.212 3.129-.276 1.14-.415 2.147-.415 3.021 0 .919.139 1.96.415 3.121.277 1.163.656 2.17 1.138 3.022a9.464 9.464 0 001.776 2.266 7.495 7.495 0 002.366 1.51c.874.35 1.81.524 2.805.524zm15.041-10.326c0-1.13.136-2.134.407-3.014.271-.88.728-1.834 1.37-2.863a9.58 9.58 0 012.324-2.582c.908-.692 2.164-1.303 3.769-1.834 1.128-.366 2.556-.548 4.283-.548 1.162 0 2.3.155 3.411.465 1.113.31 2.123.741 3.03 1.295.908.553 1.815 1.405 2.723 2.556a8.807 8.807 0 011.428 2.573c.42 1.207.63 2.452.63 3.736 0 1.46-.14 2.673-.423 3.636-.282.962-.755 1.914-1.42 2.855-.52.73-1.41 1.572-2.672 2.523-.841.642-1.887 1.16-3.138 1.553-1.25.393-2.6.589-4.05.589-1.473 0-2.784-.172-3.935-.515-1.151-.343-2.111-.76-2.88-1.253-.77-.493-1.561-1.22-2.375-2.183a10.38 10.38 0 01-1.85-3.188c-.421-1.162-.632-2.429-.632-3.801zm11.522 10.326c.93 0 1.895-.13 2.897-.39a7.25 7.25 0 002.664-1.295c.775-.603 1.381-1.29 1.818-2.059.437-.77.789-1.757 1.054-2.963.266-1.207.399-2.413.399-3.62 0-1.505-.221-2.993-.664-4.465a8.067 8.067 0 00-4.483-5.039 8.611 8.611 0 00-3.502-.722 9.005 9.005 0 00-2.956.498c-.962.332-1.754.755-2.374 1.27-.62.515-1.195 1.245-1.726 2.192-.531.946-.935 1.989-1.212 3.129-.277 1.14-.415 2.147-.415 3.021 0 .919.138 1.96.415 3.121.277 1.163.656 2.17 1.137 3.022a9.464 9.464 0 001.777 2.266 7.495 7.495 0 002.365 1.51c.875.35 1.81.524 2.806.524zm20.851-10.36c.133-.121.355-.276.665-.464.62-.377 1.687-1.13 3.204-2.258l4.548-3.719c1.251-1.04 2.131-1.86 2.64-2.457.1-.133.177-.271.233-.415a2.022 2.022 0 00-.681-.316c-.255-.066-.659-.116-1.212-.149-.553-.033-.883-.086-.988-.158-.105-.072-.158-.163-.158-.274 0-.121.04-.215.117-.282.144-.1.348-.15.614-.15.42 0 .786.031 1.096.092.31.061 1.012.091 2.108.091.266 0 .46-.005.581-.016l2.59-.133c.266-.022.47-.033.614-.033.133 0 .332.01.598.033 0 .266-.022.481-.067.647-1.195.144-2.075.327-2.64.548-.32.133-.973.498-1.958 1.096a15.82 15.82 0 00-2.026 1.461l-4.283 3.602-2.59 2.092c.045.078.111.155.2.233.066.055.232.21.498.465 1.162 1.084 2.73 2.415 4.706 3.992 1.976 1.577 3.522 2.897 4.64 3.96 1.638 1.571 3.182 2.44 4.632 2.606.354.044.609.144.764.299l.016.183-.033.232c-.376.022-.63.033-.763.033-.51 0-1.279-.039-2.308-.116a21.548 21.548 0 00-1.51-.066c-1.595 0-3.415.066-5.463.199a1.834 1.834 0 01-.05-.349l.017-.133c.144-.132.432-.254.863-.365a8.673 8.673 0 011.893-.265c.144 0 .299-.012.465-.034-.11-.177-.294-.382-.548-.614l-.448-.44a39.402 39.402 0 00-1.345-1.22l-1.976-1.577-3.038-2.557c-1.007-.863-2.412-1.964-4.217-3.304zm-6.408 10.426c.056-.11.139-.171.25-.182 1.117-.1 1.997-.3 2.639-.598.221-.2.332-.531.332-.996l-.017-1.627v-3.088l.034-1.345-.1-4.615.033-3.104c0-1.75-.033-2.917-.1-3.503a1.87 1.87 0 00-.215-.681c-.2-.122-.366-.194-.498-.216a18.729 18.729 0 00-1.843-.183c-.155-.11-.233-.243-.233-.398 0-.055.023-.138.067-.249.62-.033 1.715-.05 3.287-.05.73 0 1.306-.005 1.727-.016a94.974 94.974 0 002.158-.15c.365.033.797.05 1.295.05.121.066.182.144.182.232a.789.789 0 01-.033.216c-.133.067-.382.122-.747.166-.963.1-1.616.31-1.959.631-.232.221-.349.642-.349 1.262l.017.315-.033 6.242-.05 4.3.116 4.267c.011 1.35.044 2.094.1 2.233a.667.667 0 00.265.324c.388.232.98.387 1.777.464.199.022.393.061.58.117.067.143.1.265.1.365 0 .11-.066.216-.199.315l-.531.017c-.221 0-.753-.039-1.594-.116-.84-.078-1.466-.117-1.876-.117-.343 0-.819.04-1.427.117-.61.077-1.44.116-2.49.116-.156 0-.366-.006-.632-.017l-.033-.498zm28.18-1.129c0-.487.18-.913.54-1.278.36-.365.778-.548 1.254-.548.465 0 .858.172 1.179.515.32.343.481.774.481 1.295 0 .52-.169.957-.506 1.311a1.625 1.625 0 01-1.22.531c-.465 0-.87-.18-1.212-.54a1.8 1.8 0 01-.515-1.286zm18.71-1.693l.017 1.079c-.863.919-1.715 1.56-2.556 1.926-.841.365-1.832.548-2.972.548-1.24 0-2.357-.324-3.353-.972-.996-.647-1.763-1.563-2.3-2.747-.536-1.184-.805-2.346-.805-3.486 0-1.251.324-2.433.971-3.545.648-1.112 1.506-1.942 2.574-2.49 1.068-.548 2.41-.822 4.025-.822 1.55 0 2.729.266 3.537.797.453.31.68.708.68 1.195 0 .354-.116.648-.348.88-.233.233-.532.349-.897.349-.553 0-1.162-.343-1.826-1.03-.41-.42-.78-.71-1.112-.871a2.523 2.523 0 00-1.113-.24c-.985 0-1.804.403-2.457 1.211-.907 1.151-1.361 2.596-1.361 4.333 0 1.793.465 3.22 1.395 4.283.93 1.063 2.014 1.594 3.253 1.594.864 0 1.63-.141 2.3-.423.67-.282 1.452-.805 2.349-1.57zm2.11-3.636c0-.752.157-1.558.472-2.415a6.71 6.71 0 011.436-2.308c.642-.68 1.323-1.187 2.042-1.519 1.008-.465 2.236-.697 3.686-.697 2.07 0 3.799.708 5.188 2.125 1.389 1.416 2.083 3.12 2.083 5.113 0 1.77-.727 3.35-2.183 4.74-1.455 1.389-3.295 2.083-5.52 2.083-1.372 0-2.667-.36-3.884-1.079-.908-.542-1.688-1.345-2.341-2.407-.653-1.063-.98-2.274-.98-3.636zm7.337 6.475c.841 0 1.652-.227 2.432-.68.78-.455 1.403-1.182 1.868-2.184.465-1.002.697-2.161.697-3.478 0-.863-.18-1.865-.54-3.005-.359-1.14-.912-1.995-1.66-2.565-.747-.57-1.624-.855-2.63-.855-.731 0-1.476.172-2.234.515s-1.4 1.001-1.926 1.975c-.525.974-.788 2.358-.788 4.15 0 2.015.456 3.54 1.37 4.575.913 1.034 2.05 1.552 3.411 1.552zm9.463-.382c.177-.122.42-.205.73-.25.443-.054.786-.143 1.03-.265.199-.166.332-.404.398-.714.078-.398.116-1.798.116-4.2 0-2.357-.071-3.879-.215-4.565-.244-.155-.56-.277-.947-.365a14.09 14.09 0 01-.763-.183v-.548c.653-.188 1.181-.432 1.585-.73.404-.3.966-.897 1.685-1.793h.1c.066 0 .171-.006.315-.017.089.011.16.039.216.083l-.017 1.893c0 .387.012.802.034 1.245 1.184-1.074 2.246-1.826 3.187-2.258.642-.288 1.367-.432 2.175-.432.963 0 1.727.183 2.291.548.564.365 1.101 1.024 1.61 1.976.985-.974 1.88-1.655 2.681-2.042.803-.388 1.614-.581 2.433-.581 1.24 0 2.257.404 3.054 1.212.786.819 1.19 2.02 1.212 3.602v1.378l.017 1.51-.017 3.886c-.01.453.089.796.299 1.029.089.033.426.133 1.013.299.365.1.58.177.647.232.067.055.1.133.1.233 0 .121-.033.265-.1.431h-.116l-1.677-.1c-.199-.01-.514-.016-.946-.016-.531 0-1.273.022-2.225.066h-.846c-.122 0-.36.006-.714.017a2.434 2.434 0 01-.017-.266c0-.088.039-.199.116-.332.3-.132.709-.24 1.229-.323.52-.083.844-.233.971-.449.127-.215.191-1.076.191-2.581 0-3.265-.039-5.158-.116-5.678-.133-.83-.484-1.48-1.054-1.95-.57-.471-1.287-.706-2.15-.706a3.97 3.97 0 00-1.943.523c-.63.348-1.25.871-1.859 1.569l-.017.398v2.54l-.066 1.976c0 2.014.02 3.16.058 3.436.039.277.133.479.282.606.15.127.584.24 1.304.34.32.045.57.09.747.133.132.111.199.255.199.432 0 .144-.05.243-.15.299h-.282l-.83-.017h-4.831l-1.328.017a3.09 3.09 0 01-.033-.365l.016-.2c.244-.132.698-.26 1.362-.381a5.83 5.83 0 001.062-.283.506.506 0 00.15-.216c.055-.154.094-.597.116-1.328l.083-1.925-.033-2.175.016-1.212c0-1.361-.277-2.355-.83-2.98-.553-.625-1.25-.938-2.092-.938-.786 0-1.574.194-2.365.58a5.65 5.65 0 00-1.968 1.561c-.01.31-.016.593-.016.847l.066 5.578c.011 1.218.08 1.912.208 2.084.127.171.412.29.855.357.708.1 1.167.221 1.377.365.1.066.15.166.15.299 0 .088-.006.193-.017.315-1.261-.088-2.108-.133-2.54-.133-.442 0-.84.006-1.195.017l-.83.05h-.515l-1.86.066a.744.744 0 01-.032-.199c0-.055.022-.166.066-.332z"/></g></svg>