<svg width="352" height="228" xmlns="http://www.w3.org/2000/svg"><g fill="none" fill-rule="evenodd"><path d="M240.576 4.91v173.571h15.744v36.284h-18.141a33.822 33.822 0 01-25.863-12.017 66.269 66.269 0 01-68.637 4.539c-21.714-11.298-35.858-33.634-36.12-58.068V66h.002V10.32c21.049 9.486 35.803 30.463 36.268 54.937l.011.743v.449l-.001.15V83.15l.443 65.328c.134 16.311 13.263 29.494 29.513 29.756l.493.004c16.311 0 29.603-13.02 29.998-29.267l.008-.493V4.91h36.282z" fill="#FFC300" fill-rule="nonzero"/><path d="M57.056 214.769v-86.784h25.251c33.984 0 61.533-27.552 61.533-61.536S116.291 4.916 82.307 4.916V4.91H5v36.282h15.774v173.577h36.282zM82.307 91.694H57.056V41.189h25.251c13.947 0 25.251 11.307 25.251 25.254 0 13.944-11.304 25.251-25.251 25.251z" fill="#FF1900" fill-rule="nonzero"/><path d="M57.056 214.769v-86.784h25.251c33.984 0 61.533-27.552 61.533-61.536S116.291 4.916 82.307 4.916V4.91H5v36.282h15.774v173.577h36.282zM82.307 91.694H57.056V41.189h25.251c13.947 0 25.251 11.307 25.251 25.254 0 13.944-11.304 25.251-25.251 25.251z" fill="#FE423D" fill-rule="nonzero"/><g fill="#000" fill-rule="nonzero"><path d="M117.97 98.403l-2.18-2.153-2.04 2.065 2.18 2.153zM127.702 108.015l-7.505-7.412-2.04 2.065 7.505 7.412zM105.655 111.9l4.023 9.766-2.684 1.106-.216-.524a5.282 5.282 0 11-3.591-8.719l-.216-.524 2.684-1.105zm-.673 5.988a2.379 2.379 0 10-1.293 3.105l.148-.067a2.382 2.382 0 001.145-3.038zM94.123 112.845l-.632-2.998-2.84.599.632 2.998zM96.945 126.229l-2.176-10.321-2.84.599 2.176 10.32zM89.03 110.6l1.927 16.678-2.883.334-.065-.563a5.282 5.282 0 11-1.083-9.367l-.78-6.749 2.883-.333zm-1.562 11.765a2.379 2.379 0 10-4.726.547 2.379 2.379 0 004.726-.547zM59.903 134.216v-6.794a5.281 5.281 0 100-9.429v-.567H57v16.79h2.903zm2.378-9.13a2.38 2.38 0 01-1.682-4.06 2.379 2.379 0 111.682 4.06zm11.374 2.909c1.575 0 2.838-.503 4.221-1.68l-1.88-2.211c-.858.73-1.527.932-2.398.932a2.187 2.187 0 01-1.224-.323l3.23-1.333.398-.165 2.927-1.21-.57-1.347-.01-.022-.001-.004-.008-.018-.001-.003-.01-.021-.001-.005-.006-.014-.006-.011-.002-.006a5.22 5.22 0 00-.332-.623 5.058 5.058 0 00-.181-.275h-.002a5.282 5.282 0 00-9.451 4.248l.005.025c.1.423.251.832.452 1.216l.005.01c.15.286.327.557.528.81a5.465 5.465 0 004.317 2.03zm-2.392-5.638v-.003c.089-.81.6-1.51 1.344-1.841.26-.115.54-.174.825-.173.509 0 1.003.17 1.406.482l.045.04-1.794.74-1.72.711-.106.044zm45.557-4.907l-1.495-2.488-1.19.715-2.45-4.078 1.19-.715-1.494-2.488-1.19.715-3.203-5.331-2.488 1.495 3.202 5.33-.722.434 1.495 2.488.722-.433 2.48 4.13a2.844 2.844 0 003.899.973l1.244-.747zm4.58-3.496l-4.124-5.203a1.028 1.028 0 01.925-1.66l.333-2.884a3.947 3.947 0 00-3.615 1.569l-.084-.106-2.275 1.803 6.564 8.284 2.275-1.803zm12.096-16.027l-2.865.46a2.379 2.379 0 11-2.726-1.971l-.46-2.866a5.281 5.281 0 106.051 4.377z"/></g><path d="M237.62 214.76a33.821 33.821 0 01-25.304-12.012 66.285 66.285 0 01-8.027 4.824v-58.813l.005-.281-.001-6.478-.004-137.09h61.498a61.478 61.478 0 0151.732 94.706l-.369.568c23.865 14.097 35.355 42.42 28.044 69.159-7.24 26.475-31.133 45.057-58.506 45.412l-.831.005h-48.236zm48.237-86.865h-45.285v50.585h45.285c13.926 0 25.215-11.447 25.215-25.37 0-13.926-11.289-25.215-25.215-25.215zm-19.195-86.699l-.437-.007h-25.65l-.003 50.427h25.653a25.215 25.215 0 00.437-50.42z" fill="#00DAFF" fill-rule="nonzero"/><path d="M240.576 4.91v173.571h15.744v36.284h-18.141a33.822 33.822 0 01-25.863-12.017 66.269 66.269 0 01-68.637 4.539c-21.714-11.298-35.858-33.634-36.12-58.068V66l.002-55.68c21.049 9.486 35.803 30.463 36.268 54.937l.011.743v.449l-.001.15V83.15l.443 65.328c.134 16.311 13.263 29.494 29.513 29.756l.493.004c16.311 0 29.603-13.02 29.998-29.267l.008-.493V4.91h36.282z" fill="#FFC300" fill-rule="nonzero" opacity=".6"/><path d="M237.62 214.76a33.821 33.821 0 01-25.304-12.012 66.285 66.285 0 01-8.027 4.824v-58.813l.005-.281-.001-6.478-.004-137.09h61.498a61.478 61.478 0 0151.732 94.706l-.369.568c23.865 14.097 35.355 42.42 28.044 69.159-7.24 26.475-31.133 45.057-58.506 45.412l-.831.005h-48.236zm48.237-86.865h-45.285v50.585h45.285c13.926 0 25.215-11.447 25.215-25.37 0-13.926-11.289-25.215-25.215-25.215zm-19.195-86.699l-.437-.007h-25.65l-.003 50.427h25.653a25.215 25.215 0 00.437-50.42z" fill="#00DAFF" fill-rule="nonzero" opacity=".452"/><path d="M57.056 127.895h25.251c16.818 0 61.533-12.305 61.533-61.454M107.56 149.22c.26 24.43 14.41 46.77 36.12 58.07 21.71 11.3 48.4 9.66 68.64-4.54"/><path d="M130.201 198.244l7.404-7.543-2.07-2.033-4.154 4.232a1.738 1.738 0 01-2.48-2.435l4.153-4.232-2.071-2.033-4.154 4.231a4.64 4.64 0 001.537 7.539l-.236.24 2.071 2.034zm4.386 3.379l3.95-5.336a1.028 1.028 0 011.843.46l2.871-.43a3.947 3.947 0 00-2.457-3.082l.08-.108-2.332-1.727-6.288 8.496 2.333 1.727zm16.73 9.016l5.898-15.72-2.718-1.019-5.897 15.72 2.718 1.02zm34.429 10.243a4.64 4.64 0 003.853-5.312l-2.033-12.78-2.867.456.932 5.856a1.738 1.738 0 01-3.433.546l-.932-5.856-2.866.457.932 5.855a4.64 4.64 0 006.975 3.247l.426 2.675a1.738 1.738 0 01-3.433.547l-2.866.456a4.64 4.64 0 005.312 3.853z" fill="#000" fill-rule="nonzero"/><path d="M240.572 41.189h25.648c9.17.231 17.04 4.701 21.59 12.541"/><path d="M276.576 43.53l1.593-3.056a1.385 1.385 0 112.455 1.28l-1.593 3.056 2.574 1.341 1.593-3.056a4.27 4.27 0 00.358-3.012 4.27 4.27 0 002.263-2.018l.671-1.287-2.574-1.341-.67 1.287c-.355.677-1.19.94-1.868.588a4.272 4.272 0 00-1.334-.437l4.298-8.246-2.574-1.342-7.766 14.902 2.574 1.341zM264.8 33.237a5.281 5.281 0 015.348-2.415 5.288 5.288 0 014.343 6.075 5.281 5.281 0 11-9.691-3.66zm5.74.775a2.379 2.379 0 10-2.517 4.038 2.379 2.379 0 002.517-4.038zM257.281 30.6a5.288 5.288 0 015.282 5.281 5.281 5.281 0 11-5.282-5.281zm.91 3.083a2.379 2.379 0 10-1.82 4.396 2.379 2.379 0 001.82-4.396z" fill="#000" fill-rule="nonzero"/><path d="M243.483 24.39v6.794a5.28 5.28 0 110 9.43v-.001.566h-2.903V24.39h2.903zm2.378 9.13a2.379 2.379 0 100 4.757 2.379 2.379 0 000-4.758zM166.959 205.659a5.279 5.279 0 016.895-.428 2.819 2.819 0 012.18-.919l1.45.045-.088 2.9-1.388-.042-.073 2.378a5.28 5.28 0 01-5.44 5.117l-1.921-.059a.457.457 0 10-.028.914l3.841.118a3.36 3.36 0 01-.205 6.716l-3.372-.103.09-2.901 3.37.103a.457.457 0 00.028-.914l-3.841-.118a3.358 3.358 0 01-2.065-5.922 5.279 5.279 0 01.567-6.885zm3.77 1.395a2.379 2.379 0 10-.146 4.755 2.379 2.379 0 00.146-4.755zM155.18 204.608a5.281 5.281 0 015.485-2.083 5.288 5.288 0 013.963 6.33 5.281 5.281 0 11-9.449-4.247zm5.681 1.125a2.379 2.379 0 10-2.76 3.876 2.379 2.379 0 002.76-3.876zM141.336 197.795a5.281 5.281 0 015.84-.568 5.288 5.288 0 012.16 7.15 5.281 5.281 0 11-8-6.582zm5.186 2.579a2.379 2.379 0 10-3.68 3.014 2.379 2.379 0 003.68-3.014z" fill="#000" fill-rule="nonzero"/></g></svg>