<svg width="382" height="382" xmlns="http://www.w3.org/2000/svg"><g fill="none" fill-rule="nonzero"><path d="M255.576 81.91v173.571h15.744v36.284h-18.141a33.822 33.822 0 01-25.863-12.017 66.269 66.269 0 01-68.637 4.539c-21.714-11.298-35.858-33.634-36.12-58.068V143h.002V87.32c21.049 9.486 35.803 30.463 36.268 54.937l.011.743v.449l-.001.15v16.551l.443 65.328c.134 16.311 13.263 29.494 29.513 29.756l.493.004c16.311 0 29.603-13.02 29.998-29.267l.008-.493V81.91h36.282z" fill="#FFC300"/><path d="M72.056 291.769v-86.784h25.251c33.984 0 61.533-27.552 61.533-61.536s-27.549-61.533-61.533-61.533v-.006H20v36.282h15.774v173.577h36.282zm25.251-123.075H72.056v-50.505h25.251c13.947 0 25.251 11.307 25.251 25.254 0 13.944-11.304 25.251-25.251 25.251z" fill="#FF1900"/><path d="M72.056 291.769v-86.784h25.251c33.984 0 61.533-27.552 61.533-61.536s-27.549-61.533-61.533-61.533v-.006H20v36.282h15.774v173.577h36.282zm25.251-123.075H72.056v-50.505h25.251c13.947 0 25.251 11.307 25.251 25.254 0 13.944-11.304 25.251-25.251 25.251z" fill="#FE423D"/><path d="M252.62 291.76a33.821 33.821 0 01-25.304-12.012 66.285 66.285 0 01-8.027 4.824v-58.813l.005-.281-.001-6.478-.004-137.09h61.498a61.478 61.478 0 0151.732 94.706l-.369.568c23.865 14.097 35.355 42.42 28.044 69.159-7.24 26.475-31.133 45.057-58.506 45.412l-.831.005h-48.236zm48.237-86.865h-45.285v50.585h45.285c13.926 0 25.215-11.447 25.215-25.37 0-13.926-11.289-25.215-25.215-25.215zm-19.195-86.699l-.437-.007h-25.65l-.003 50.427h25.653a25.215 25.215 0 00.437-50.42z" fill="#00DAFF"/><path d="M255.576 81.91v173.571h15.744v36.284h-18.141a33.822 33.822 0 01-25.863-12.017 66.269 66.269 0 01-68.637 4.539c-21.714-11.298-35.858-33.634-36.12-58.068V143l.002-55.68c21.049 9.486 35.803 30.463 36.268 54.937l.011.743v.449l-.001.15v16.551l.443 65.328c.134 16.311 13.263 29.494 29.513 29.756l.493.004c16.311 0 29.603-13.02 29.998-29.267l.008-.493V81.91h36.282z" fill="#FFC300" opacity=".6"/><path d="M252.62 291.76a33.821 33.821 0 01-25.304-12.012 66.285 66.285 0 01-8.027 4.824v-58.813l.005-.281-.001-6.478-.004-137.09h61.498a61.478 61.478 0 0151.732 94.706l-.369.568c23.865 14.097 35.355 42.42 28.044 69.159-7.24 26.475-31.133 45.057-58.506 45.412l-.831.005h-48.236zm48.237-86.865h-45.285v50.585h45.285c13.926 0 25.215-11.447 25.215-25.37 0-13.926-11.289-25.215-25.215-25.215zm-19.195-86.699l-.437-.007h-25.65l-.003 50.427h25.653a25.215 25.215 0 00.437-50.42z" fill="#00DAFF" opacity=".452"/></g></svg>